<svg width="114" height="94" viewBox="0 0 114 94" fill="none" xmlns="http://www.w3.org/2000/svg">
<path d="M113.936 46.8632C113.936 48.3888 113.265 49.7926 112.044 50.9526L71.5166 91.4794C70.2348 92.6395 68.9531 93.1276 67.5493 93.1276C64.4975 93.1276 62.1781 90.9307 62.1781 87.8788C62.1781 86.4751 62.7275 85.0101 63.7044 84.0332L77.3149 70.1176L97.9448 51.3794L83.1132 52.3563H5.96497C2.79122 52.3563 0.593727 50.0369 0.593727 46.8632C0.593727 43.6894 2.79122 41.4307 5.96497 41.4307H83.1132L97.8838 42.3463L77.3149 23.6086L63.7044 9.7537C62.6662 8.71608 62.1781 7.31226 62.1781 5.84745C62.1781 2.8567 64.4975 0.598389 67.5493 0.598389C68.9531 0.598389 70.2958 1.1477 71.6387 2.42945L112.044 42.7738C113.265 43.9945 113.936 45.3982 113.936 46.8632Z" fill="white"/>
</svg>
