<svg width="30" height="36" viewBox="0 0 30 36" fill="none" xmlns="http://www.w3.org/2000/svg">
<path fill-rule="evenodd" clip-rule="evenodd" d="M2.37284 0H27.6268C28.8642 0.00742433 29.8634 1.01261 29.8633 2.25V11.6445C29.8983 21.7983 24.3135 31.1383 15.3523 35.913C15.2437 35.9704 15.1227 36.0003 14.9998 36C14.8773 36 14.7567 35.9696 14.6488 35.9115C5.68633 31.1388 0.100552 21.7985 0.13634 11.6445V2.25C0.136318 1.01261 1.13548 0.00742433 2.37284 0ZM13.1998 21.9675L23.8498 11.9175C24.2394 11.5491 24.4029 11.0008 24.2786 10.4792C24.1543 9.95754 23.7612 9.54185 23.2474 9.38866C22.7335 9.23547 22.1769 9.36807 21.7873 9.7365L12.1948 18.777L9.67184 16.227C9.29706 15.8357 8.74036 15.6769 8.21552 15.8116C7.69068 15.9463 7.27931 16.3537 7.13939 16.8771C6.99946 17.4006 7.15273 17.9589 7.54034 18.3375L11.0998 21.9315C11.6733 22.5133 12.6068 22.5293 13.1998 21.9675Z" fill="#4E2D92"/>
</svg>
